<?xml version="1.0" encoding="utf-8"?>
<!-- Generator: Adobe Illustrator 28.0.0, SVG Export Plug-In . SVG Version: 6.00 Build 0)  -->
<svg version="1.1" id="Layer_1" xmlns="http://www.w3.org/2000/svg" xmlns:xlink="http://www.w3.org/1999/xlink" x="0px" y="0px"
	 width="79.2px" height="91.4px" viewBox="0 0 79.2 91.4" style="enable-background:new 0 0 79.2 91.4;" xml:space="preserve">
<style type="text/css">
	.st0{fill:#64AFFE;}
	.st1{fill:#3767D3;}
	.st2{fill:#D7E1F6;}
	.st3{fill:#F96177;}
	.st4{fill:#FFF9A2;}
	.st5{fill:#173A91;}
	.st6{fill:#2BA0FF;}
</style>
<path class="st0" d="M38.2,85.1H8.9l0.1,2c0,2.3,1.9,4.2,4.2,4.2H34c2.3,0,4.2-1.9,4.2-4.2V85.1"/>
<path class="st0" d="M70.3,85.1H40.5v2c0,2.3,1.9,4.2,4.2,4.2H66c2.3,0,4.2-1.9,4.2-4.2L70.3,85.1"/>
<g>
	<path class="st1" d="M79.1,42.9L79,44.2C79,43.8,79,43.3,79.1,42.9 M39.6,0C17.6,0,0.1,17.9,0.1,40.1c0.4-1.9,2.1-3.3,4.2-3.3h15.6
		c-0.2-0.1-0.5-0.3-0.7-0.5h-3.8c-1,0-1.8-0.8-1.8-1.8s0.8-1.8,1.8-1.8h2.8c0.1-0.3,0.2-0.7,0.3-1.1c1-2.7,2.5-6.2,4.9-9.3L21,20.1
		c-0.8-0.7-0.8-1.8-0.2-2.6c0.4-0.4,0.9-0.6,1.4-0.6c0.4,0,0.9,0.2,1.2,0.5l2.5,2.2c2.9-2.7,6.6-4.8,11.6-5.2v-2.7
		c0-1,0.8-1.8,1.8-1.8s1.8,0.8,1.8,1.8v2.7c4.9,0.4,8.9,2.5,12.1,5.3l2.4-1.9c0.3-0.3,0.7-0.4,1.1-0.4c0.5,0,1.1,0.2,1.4,0.7
		c0.6,0.8,0.5,1.9-0.3,2.6l-2.1,1.7c2.5,3,4.3,6.5,5.2,9.7c0.1,0.3,0.2,0.6,0.2,0.8h2.9c1,0,1.8,0.8,1.8,1.8s-0.8,1.8-1.8,1.8h-4.2
		c-0.3,0.2-0.6,0.3-0.9,0.5h15.9c2.2,0,3.9,1.5,4.2,3.5C78.9,18.3,61.6,0,39.6,0"/>
	<path class="st1" d="M74.9,36.8H59c-0.8,0.4-1.8,0.5-2.8,0.5c-2.9,0-6.8,0-10.9,0c-8.2,0-17.5,0-23.1,0c-0.8,0-1.5-0.2-2.2-0.5H4.3
		c-2.1,0-3.8,1.4-4.2,3.3C0,40.5,0,41,0,41.4l2.3,39.2c0.1,2.5,2.3,4.6,4.8,4.6h1.8L6.8,45.3c0-2.3,1.9-4.2,4.2-4.2h23
		c2.3,0,4.2,1.9,4.2,4.2v39.8h2.3V45.3c0-2.3,1.9-4.2,4.2-4.2h23c2.3,0,4.2,1.9,4.2,4.2l-1.7,39.8h1.5c2.5,0,4.7-2.1,4.9-4.6
		L79,44.2l0.1-1.3l0.1-1.5c0-0.3,0-0.7-0.1-1C78.8,38.4,77.1,36.8,74.9,36.8"/>
	<path class="st2" d="M41.2,14.3v2.1c0,1-0.8,1.8-1.8,1.8s-1.8-0.8-1.8-1.8v-2.1c-5,0.4-8.7,2.5-11.6,5.2l1.2,1
		c0.8,0.7,0.8,1.8,0.2,2.6c-0.4,0.4-0.9,0.6-1.4,0.6c-0.4,0-0.9-0.2-1.2-0.5l-1.2-1c-2.4,3.2-4,6.7-4.9,9.3
		c-0.1,0.4-0.2,0.8-0.3,1.1h2c1,0,1.8,0.8,1.8,1.8s-0.8,1.8-1.8,1.8h-1.1c0.2,0.2,0.4,0.3,0.7,0.5H59c0.3-0.1,0.6-0.3,0.9-0.5h-0.6
		c-1,0-1.8-0.8-1.8-1.8s0.8-1.8,1.8-1.8h1.9c-0.1-0.3-0.1-0.5-0.2-0.8c-1-3.1-2.7-6.6-5.2-9.7L54,23.6c-0.3,0.3-0.7,0.4-1.1,0.4
		c-0.5,0-1.1-0.2-1.4-0.7c-0.6-0.8-0.5-1.9,0.3-2.6l1.4-1.1C50,16.8,46,14.7,41.2,14.3"/>
	<path class="st2" d="M59,36.8H19.9c0.6,0.3,1.4,0.5,2.2,0.5c5.6,0,14.9,0,23.1,0c4.2,0,8,0,10.9,0C57.2,37.4,58.2,37.2,59,36.8"/>
	<path class="st3" d="M22.2,16.9c-0.5,0-1,0.2-1.4,0.6c-0.7,0.8-0.6,1.9,0.2,2.6l2.5,2.2c0.7-1,1.5-1.9,2.4-2.7l-2.5-2.2
		C23.1,17,22.7,16.9,22.2,16.9"/>
	<path class="st4" d="M25.9,19.5c-0.9,0.9-1.7,1.8-2.4,2.7l1.2,1c0.3,0.3,0.8,0.5,1.2,0.5c0.5,0,1-0.2,1.4-0.6
		c0.7-0.8,0.6-1.9-0.2-2.6L25.9,19.5"/>
	<path class="st3" d="M56.7,17.3c-0.4,0-0.8,0.1-1.1,0.4l-2.4,1.9c0.9,0.8,1.8,1.7,2.6,2.6l2.1-1.7c0.8-0.6,0.9-1.8,0.3-2.6
		C57.8,17.5,57.3,17.3,56.7,17.3"/>
	<path class="st4" d="M53.2,19.6l-1.4,1.1c-0.8,0.6-0.9,1.8-0.3,2.6c0.4,0.5,0.9,0.7,1.4,0.7c0.4,0,0.8-0.1,1.1-0.4l1.7-1.3
		C55,21.3,54.1,20.4,53.2,19.6"/>
	<path class="st3" d="M18.3,32.7h-2.8c-1,0-1.8,0.8-1.8,1.8s0.8,1.8,1.8,1.8h3.8C18.4,35.6,18,34.4,18.3,32.7"/>
	<path class="st4" d="M20.3,32.7h-2c-0.3,1.6,0.1,2.9,1,3.7h1.1c1,0,1.8-0.8,1.8-1.8S21.3,32.7,20.3,32.7"/>
	<path class="st3" d="M64.1,32.7h-2.9c0.3,1.7-0.3,2.9-1.3,3.7h4.2c1,0,1.8-0.8,1.8-1.8S65.1,32.7,64.1,32.7"/>
	<path class="st4" d="M61.2,32.7h-1.9c-1,0-1.8,0.8-1.8,1.8s0.8,1.8,1.8,1.8h0.6C60.9,35.6,61.5,34.4,61.2,32.7"/>
	<path class="st3" d="M39.3,9.7c-1,0-1.8,0.8-1.8,1.8v2.7c0.6,0,1.2-0.1,1.8-0.1s1.2,0,1.8,0.1v-2.7C41.2,10.6,40.3,9.7,39.3,9.7"/>
	<path class="st4" d="M39.4,14.2c-0.6,0-1.2,0-1.8,0.1v2.1c0,1,0.8,1.8,1.8,1.8s1.8-0.8,1.8-1.8v-2.1C40.6,14.3,40,14.2,39.4,14.2"
		/>
	<path class="st5" d="M43.7,30.8l5.8-7.3c0.3-0.4-0.2-0.9-0.7-0.7l-7.3,5.8c-1.7-0.8-3.8-0.5-5.2,0.9c-1.8,1.8-1.8,4.7,0,6.5
		s4.7,1.8,6.5,0C44.2,34.6,44.5,32.5,43.7,30.8z"/>
	<path class="st6" d="M34,41.1H11c-2.3,0-4.2,1.9-4.2,4.2l2.1,39.8h29.3V45.3C38.2,43,36.4,41.1,34,41.1"/>
	<path class="st6" d="M67.8,41.1h-23c-2.3,0-4.2,1.9-4.2,4.2v39.8h29.7L72,45.3C72,43,70.1,41.1,67.8,41.1"/>
</g>
</svg>
